<svg width="19" height="18" viewBox="0 0 19 18" fill="none" xmlns="http://www.w3.org/2000/svg">
<path d="M1.45047 1.66388H14.822C14.8623 1.66388 14.899 1.67932 14.9368 1.69091L15.2654 0.589594C15.3699 0.239363 15.6867 0 16.0458 0H17.6774C17.9027 0 18.0854 0.186249 18.0854 0.41598V1.2479C18.0854 1.47763 17.9027 1.66388 17.6774 1.66388H16.6501L14.1013 10.2046L15.0532 11.337C15.4294 11.7846 15.5989 12.4013 15.4257 12.9637C15.2042 13.683 14.5817 14.1429 13.8639 14.1429H2.17629C1.951 14.1429 1.76835 13.9566 1.76835 13.7269V12.895C1.76835 12.6652 1.951 12.479 2.17629 12.479H13.8639L12.5708 10.9406C12.5383 10.9019 12.5144 10.8583 12.4897 10.8151H4.58479C3.95252 10.8151 3.37716 10.4428 3.10793 9.8594L0.261343 3.69125C0.179695 3.51374 0.136671 3.31673 0.136671 3.12131V3.0035C0.136671 2.26369 0.724886 1.66388 1.45047 1.66388Z" fill="#F9FBFF"/>
<path d="M13.2777 18.0001C12.3926 18.0001 11.6751 17.2805 11.6751 16.3929C11.6751 15.5053 12.3926 14.7858 13.2777 14.7858C14.1628 14.7858 14.8802 15.5053 14.8802 16.3929C14.8802 17.2805 14.1628 18.0001 13.2777 18.0001Z" fill="white"/>
<path d="M3.66233 18.0001C2.77726 18.0001 2.05976 17.2805 2.05976 16.3929C2.05976 15.5053 2.77726 14.7858 3.66233 14.7858C4.5474 14.7858 5.26489 15.5053 5.26489 16.3929C5.26489 17.2805 4.5474 18.0001 3.66233 18.0001Z" fill="white"/>
</svg>
